<?xml version="1.0" encoding="utf-8"?>
<!-- Generator: Adobe Illustrator 18.0.0, SVG Export Plug-In . SVG Version: 6.00 Build 0)  -->
<!DOCTYPE svg PUBLIC "-//W3C//DTD SVG 1.1//EN" "http://www.w3.org/Graphics/SVG/1.1/DTD/svg11.dtd">
<svg version="1.1" id="Layer_1" xmlns="http://www.w3.org/2000/svg" xmlns:xlink="http://www.w3.org/1999/xlink" x="0px" y="0px"
	 viewBox="0 0 22.4 20" enable-background="new 0 0 22.4 20" xml:space="preserve">
<g>
	<path fill="#BDBEC0" d="M10.1,19.9c-5.4,0-9.9-4.4-9.9-9.9s4.4-9.9,9.9-9.9S20,4.6,20,10S15.5,19.9,10.1,19.9z M10.1,2.2
		c-4.3,0-7.9,3.5-7.9,7.9c0,4.3,3.5,7.9,7.9,7.9c4.3,0,7.9-3.5,7.9-7.9C18,5.7,14.4,2.2,10.1,2.2z"/>
	<polygon fill="#CDCCCC" points="10.8,15.9 5.2,10.3 6.6,8.9 10.8,13 20.8,3 22.2,4.4 	"/>
</g>
</svg>
